<?xml version="1.0" encoding="UTF-8" standalone="no"?>
<svg
   xmlns:dc="http://purl.org/dc/elements/1.1/"
   xmlns:cc="http://creativecommons.org/ns#"
   xmlns:rdf="http://www.w3.org/1999/02/22-rdf-syntax-ns#"
   xmlns:svg="http://www.w3.org/2000/svg"
   xmlns="http://www.w3.org/2000/svg"
   xmlns:sodipodi="http://sodipodi.sourceforge.net/DTD/sodipodi-0.dtd"
   xmlns:inkscape="http://www.inkscape.org/namespaces/inkscape"
   viewBox="0 0 64 64"
   enable-background="new 0 0 64 64"
   fill="context-fill"
   fill-opacity="context-fill-opacity"
   version="1.1"
   id="svg58"
   sodipodi:docname="pushpin.svg"
   inkscape:version="1.0.2 (e86c8708, 2021-01-15)">
  <metadata
     id="metadata64">
    <rdf:RDF>
      <cc:Work
         rdf:about="">
        <dc:format>image/svg+xml</dc:format>
        <dc:type
           rdf:resource="http://purl.org/dc/dcmitype/StillImage" />
      </cc:Work>
    </rdf:RDF>
  </metadata>
  <sodipodi:namedview
     pagecolor="#ffffff"
     bordercolor="#666666"
     borderopacity="1"
     objecttolerance="10"
     gridtolerance="10"
     guidetolerance="10"
     inkscape:pageopacity="0"
     inkscape:pageshadow="2"
     inkscape:window-width="1737"
     inkscape:window-height="1180"
     id="namedview60"
     showgrid="false"
     inkscape:zoom="15.75"
     inkscape:cx="20.984127"
     inkscape:cy="32"
     inkscape:window-x="306"
     inkscape:window-y="114"
     inkscape:window-maximized="0"
     inkscape:current-layer="svg58"
     inkscape:document-rotation="0" />
  <path
     d="M 2.0000137,23.448 23.456014,2.0000001 c 0.315,2.875 -0.297,6.054 -1.764,9.1109999 l 14.538,14.535 c 5.529,-3.519 11.593,-5.079 16.941,-4.483 l -14.143,14.148 c 6.258,6.884 20.285,23.744 22.382,25.841 0.023,0.023 0.048,0.046 0.071,0.068 0.845,0.844 0.586,1.106 -0.258,0.262 -1.852,-1.846 -18.983,-16.113 -25.92,-22.445 l -14.133,14.137 c -0.592,-5.298 0.927,-11.291 4.369,-16.772 l -14.62,-14.616 c -2.9950003,1.399 -6.1030003,1.975 -8.9190003,1.662"
     id="path56" />
  <circle
     style="fill:#ffffff;fill-opacity:1;stroke-width:0.986572"
     id="path27"
     cx="19.96884"
     cy="43.730877"
     r="11" />
  <!-- Font Awesome Free 5.15.1 by @fontawesome - https://fontawesome.com License - https://fontawesome.com/license/free (Icons: CC BY 4.0, Fonts: SIL OFL 1.1, Code: MIT License) -->
  <path
     d="M 32,44 C 32,50.627435 26.627435,56 20,56 13.372565,56 8,50.627435 8,44 8,37.372565 13.372565,32 20,32 c 6.627435,0 12,5.372565 12,12 z m -13.388033,6.353903 8.903226,-8.903224 c 0.302322,-0.302325 0.302322,-0.792533 0,-1.094858 l -1.094854,-1.094853 c -0.302324,-0.30237 -0.792533,-0.30237 -1.094904,0 l -7.26092,7.260871 -3.38995,-3.389952 c -0.302324,-0.302322 -0.792533,-0.302322 -1.094904,0 l -1.094855,1.094855 c -0.302322,0.302323 -0.302322,0.792533 0,1.094855 l 5.032259,5.032257 c 0.30237,0.302373 0.792533,0.302373 1.094902,4.9e-5 z"
     id="path10"
     style="fill:#00ff00;stroke-width:0.0483872" />
</svg>
